<svg id="Layer_1" data-name="Layer 1" xmlns="http://www.w3.org/2000/svg" viewBox="0 0 126 126"><title>calculation</title><circle cx="63" cy="63" r="63" style="fill:#07d1b8"/><polygon points="50.3 37.72 50.3 40.13 40.5 40.13 40.5 49.93 38.09 49.93 38.09 40.13 28.29 40.13 28.29 37.72 38.09 37.72 38.09 27.92 40.5 27.92 40.5 37.72 50.3 37.72" style="fill:#fff"/><polygon points="97.38 48.22 95.68 49.93 88.75 43 81.82 49.93 80.12 48.22 87.04 41.29 80.12 34.36 81.82 32.66 88.75 39.59 95.68 32.66 97.38 34.36 90.46 41.29 97.38 48.22" style="fill:#fff"/><rect x="25.5" y="84.5" width="22.01" height="2.43" style="fill:#fff"/><rect x="14.25" y="62.64" width="99.5" height="2.72" transform="translate(127 -1) rotate(90)" style="fill:#fff"/><rect x="14" y="62.64" width="100" height="2.72" transform="translate(127 127) rotate(180)" style="fill:#fff"/><rect x="78.98" y="80.93" width="17.27" height="2.43" style="fill:#fff"/><rect x="78.98" y="88.12" width="17.27" height="2.43" style="fill:#fff"/></svg>