<svg id="Layer_1" data-name="Layer 1" xmlns="http://www.w3.org/2000/svg" viewBox="0 0 126 126"><title>dictionary</title><circle cx="63" cy="63" r="63" style="fill:#f94343"/><path d="M96.75,110H31.63A5.64,5.64,0,0,1,26,104.38V22.63A5.64,5.64,0,0,1,31.63,17H96.75A4.26,4.26,0,0,1,101,21.25v84.5A4.26,4.26,0,0,1,96.75,110Z" transform="translate(-1)" style="fill:#bf3d3a"/><path d="M30.63,17H38a0,0,0,0,1,0,0v93a0,0,0,0,1,0,0H30.63A5.63,5.63,0,0,1,25,104.38V22.63A5.62,5.62,0,0,1,30.63,17Z" style="fill:#ffb6b6"/><rect x="50" y="87.9" width="41" height="2.76" style="fill:#f94343"/><rect x="57" y="94.35" width="27" height="2.76" style="fill:#f94343"/><g style="opacity:0.88"><path d="M53.16,49.86l-3.44,9.58H45.3L56.55,29H61.7L73,59.44H68.43L64.9,49.86ZM64,46.78,60.77,38c-.74-2-1.23-3.8-1.72-5.56H59c-.49,1.81-1,3.66-1.67,5.52L54,46.78Z" transform="translate(-1)" style="fill:#fff"/><path d="M91.07,59.44l-.34-2.76h-.15a9.12,9.12,0,0,1-7.27,3.26c-4.81,0-7.27-3.12-7.27-6.28,0-5.29,5.11-8.18,14.29-8.14v-.45c0-1.81-.54-5.06-5.4-5.06a12.6,12.6,0,0,0-6.19,1.63l-1-2.62a15.72,15.72,0,0,1,7.81-1.94c7.27,0,9,4.57,9,9V54.2A28.35,28.35,0,0,0,95,59.44Zm-.64-11.17c-4.71-.09-10.07.68-10.07,4.93,0,2.58,1.87,3.8,4.08,3.8a5.89,5.89,0,0,0,5.74-3.66,3.88,3.88,0,0,0,.24-1.27Z" transform="translate(-1)" style="fill:#fff"/></g></svg>