<svg id="Layer_1" data-name="Layer 1" xmlns="http://www.w3.org/2000/svg" viewBox="0 0 129 126"><title>donate</title><path d="M127,64A63,63,0,1,1,17,22a64.35,64.35,0,0,1,5-5A60,60,0,0,1,27,13a63,63,0,0,1,77,2.31A65.29,65.29,0,0,1,109,20a59.88,59.88,0,0,1,5,5.72A62.66,62.66,0,0,1,127,64Z" transform="translate(-1 -1)" style="fill:#0dddff"/><path d="M114,25.68V99H17V22a64.35,64.35,0,0,1,5-5A60,60,0,0,1,27,13a63,63,0,0,1,77,2.31A65.29,65.29,0,0,1,109,20,59.88,59.88,0,0,1,114,25.68Z" transform="translate(-1 -1)" style="fill:#62db2a"/><path d="M109,20V94H22V17.09A60,60,0,0,1,27,13a63,63,0,0,1,77,2.31A65.29,65.29,0,0,1,109,20Z" transform="translate(-1 -1)" style="fill:#76ff2e"/><path d="M104,15.32V88H27V13a63,63,0,0,1,77,2.31Z" transform="translate(-1 -1)" style="fill:#62db2a"/><text transform="translate(44.5 68.11)" style="opacity:0.84;font-size:41px;fill:#fff;font-family:MyriadPro-Regular, Myriad Pro">1$</text></svg>