<svg id="Layer_1" data-name="Layer 1" xmlns="http://www.w3.org/2000/svg" viewBox="0 0 126 126"><title>goto</title><circle cx="63" cy="63" r="63" style="fill:#4fc3f7"/><path d="M108.11,40.2a48.06,48.06,0,0,0-2.6-4.38A50.89,50.89,0,0,0,64.63,13.06l-.85,0H63c-.28,0-.55,0-.83,0l-.6,0h-.19a50.9,50.9,0,0,0-41.06,23,46.18,46.18,0,0,0-2.58,4.41A50.6,50.6,0,0,0,12.06,61.6h0C12,62.4,12,63.19,12,64s0,1.51.06,2.26A50.81,50.81,0,0,0,19.2,90.14a50.94,50.94,0,0,0,43,24.85h1.5a51,51,0,0,0,44.1-26.68,48.51,48.51,0,0,0,2.83-6.17A50.17,50.17,0,0,0,114,66q0-.42,0-.84h0c0-.38,0-.74,0-1.12A50.73,50.73,0,0,0,108.11,40.2Zm-7.58-2.77c-2.56.79-5.13,1.49-7.69,2.11a49.94,49.94,0,0,0-10.13-17.1A46.45,46.45,0,0,1,100.53,37.43ZM92,64c0,.65,0,1.29,0,1.93Q86,67,80,67.57c0-1.18,0-2.37,0-3.57a144.91,144.91,0,0,0-1-16.84c3.48-.43,7-1,10.44-1.74A67.86,67.86,0,0,1,92,64ZM75,64c0,1.35,0,2.68-.06,4a169.94,169.94,0,0,1-23.88.06C51,66.72,51,65.37,51,64a140.53,140.53,0,0,1,.91-16.23q5.34.44,10.66.44,5.76,0,11.51-.51A139.49,139.49,0,0,1,75,64Zm-.28,9A118.34,118.34,0,0,1,72.49,90.2a147.39,147.39,0,0,1-18.9.38,117.55,117.55,0,0,1-2.31-17.47q5.61.36,11.22.36Q68.61,73.47,74.72,73Zm-26.3,17.2C45.2,90,42,89.64,38.8,89.17a62.37,62.37,0,0,1-4.44-17.94q5.94.95,11.89,1.5A126.64,126.64,0,0,0,48.42,90.25ZM34,66.11c0-.7,0-1.4,0-2.11a67.89,67.89,0,0,1,2.46-18.41c3.49.71,7,1.26,10.47,1.68A147.76,147.76,0,0,0,46,64c0,1.24,0,2.46,0,3.67Q40,67.1,34,66.11Zm57.61,5a62.85,62.85,0,0,1-4,17.09q-5,.93-9.92,1.5a127.74,127.74,0,0,0,2-17Q85.7,72,91.65,71.07ZM82.88,30.71a49,49,0,0,1,5,9.93q-4.77,1-9.55,1.56c-1.45-9.19-3.79-16.87-6.69-22A30.33,30.33,0,0,1,82.88,30.71ZM63,18c.89,0,4.14,2.12,7.28,11.52a84.34,84.34,0,0,1,3.12,13.2,124.66,124.66,0,0,1-20.81.08,84,84,0,0,1,3.13-13.28C58.86,20.12,62.11,18,63,18Zm-8.68,2.16c-2.92,5.19-5.26,12.91-6.71,22.14-3.2-.37-6.39-.87-9.59-1.5a49.19,49.19,0,0,1,5.1-10.09A30.33,30.33,0,0,1,54.32,20.16Zm-11,2.28a50.43,50.43,0,0,0-10.21,17.3q-3.89-.91-7.77-2.07A46.27,46.27,0,0,1,43.29,22.44ZM22.57,42.07q4.5,1.38,9,2.46A73.24,73.24,0,0,0,29,64c0,.4,0,.8,0,1.2Q23,64,17,62.44A45.62,45.62,0,0,1,22.57,42.07ZM17.14,67.65q6,1.56,12.12,2.69a69.93,69.93,0,0,0,3.81,17.88q-5.28-1-10.54-2.36A45.74,45.74,0,0,1,17.14,67.65ZM26.51,92q4.41,1,8.84,1.72a46.88,46.88,0,0,0,7.94,11.87A46.26,46.26,0,0,1,26.51,92Zm16.61,5.32c-.59-.88-1.14-1.79-1.66-2.72q4.06.52,8.14.79a52.82,52.82,0,0,0,4.72,12.48A30.32,30.32,0,0,1,43.12,97.29Zm27.16,1.19C67.14,107.88,63.89,110,63,110s-4.14-2.12-7.28-11.52q-.46-1.38-.87-2.85c1.74.07,3.49.1,5.24.1q5.56,0,11.15-.41C70.94,96.41,70.62,97.47,70.28,98.48Zm1.4,9.36a54.09,54.09,0,0,0,4.86-13c2.83-.31,5.67-.69,8.5-1.15-.67,1.25-1.39,2.44-2.16,3.59A30.32,30.32,0,0,1,71.68,107.84Zm11-2.28a48,48,0,0,0,8.47-13q4.74-.95,9.49-2.21A46.29,46.29,0,0,1,82.71,105.56Zm21.64-21.42q-5.49,1.63-11,2.85a70.14,70.14,0,0,0,3.39-16.84q6.07-1.17,12.13-2.77A45.61,45.61,0,0,1,104.35,84.14ZM97,65c0-.33,0-.67,0-1a73.09,73.09,0,0,0-2.63-19.69c3-.72,6-1.56,8.92-2.49A45.59,45.59,0,0,1,109,62.18C105,63.26,101,64.21,97,65Z" transform="translate(-1 -1)" style="fill:#fff"/><path d="M115.21,65.9,115,66q0-.42,0-.84Z" transform="translate(-1 -1)" style="fill:#fff"/></svg>