<svg id="Layer_1" data-name="Layer 1" xmlns="http://www.w3.org/2000/svg" viewBox="0 0 126 126"><title>location</title><path d="M127,64a63.25,63.25,0,0,1-1.14,12c-.29,1.52-.64,3-1,4.49-.14.51-.28,1-.43,1.51A63,63,0,0,1,39,121.84a59.86,59.86,0,0,1-6-3A63,63,0,0,1,3.61,82c-.15-.5-.29-1-.43-1.51-.4-1.47-.75-3-1-4.49A63.07,63.07,0,0,1,33,9.15a59.87,59.87,0,0,1,6-3A63,63,0,0,1,127,64Z" transform="translate(-1 -1)" style="fill:#81c784"/><path d="M124.82,80.49c-.14.51-.28,1-.43,1.51a62.75,62.75,0,0,1-6.11,14H9.72A63.21,63.21,0,0,1,3.61,82c-.15-.5-.29-1-.43-1.51Z" transform="translate(-1 -1)" style="fill:#e5e5e5"/><path d="M39,6.16V121.84a59.86,59.86,0,0,1-6-3,63.54,63.54,0,0,1-10-7V16.17a63.48,63.48,0,0,1,10-7A59.87,59.87,0,0,1,39,6.16Z" transform="translate(-1 -1)" style="fill:#e5e5e5"/><path d="M91,26.39c0,.47,0,.93,0,1.38a.41.41,0,0,1,0,.12Q89.82,49.25,71,70.61,52.19,49.23,51.06,27.89a.41.41,0,0,1,0-.12c0-.45,0-.91,0-1.38a20,20,0,1,1,40,0Z" transform="translate(-1 -1)" style="fill:#c62828"/><circle cx="70.5" cy="24.5" r="12.5" style="fill:#e8e8e8"/></svg>