<svg id="Layer_1" data-name="Layer 1" xmlns="http://www.w3.org/2000/svg" viewBox="0 0 117.39 124.04"><title>logo</title><rect x="0.5" y="0.5" width="116.39" height="122.04" rx="4.3" ry="4.3" style="fill:#866de8"/><path d="M117.89,3a3.8,3.8,0,0,1,3.8,3.8V120.2a3.8,3.8,0,0,1-3.8,3.8H10.11a3.8,3.8,0,0,1-3.8-3.8V6.75A3.8,3.8,0,0,1,10.11,3H117.89m0-1H10.11a4.8,4.8,0,0,0-4.8,4.8V120.2a4.8,4.8,0,0,0,4.8,4.8H117.89a4.8,4.8,0,0,0,4.8-4.8V6.75a4.8,4.8,0,0,0-4.8-4.8Z" transform="translate(-5.31 -1.96)"/><path d="M65.54,90.56A30.87,30.87,0,1,1,96.41,59.7,30.9,30.9,0,0,1,65.54,90.56Z" transform="translate(-5.31 -1.96)" style="fill:#32332e"/><path d="M65.54,29.33A30.37,30.37,0,1,1,35.18,59.7,30.4,30.4,0,0,1,65.54,29.33m0-1A31.37,31.37,0,1,0,96.91,59.7,31.37,31.37,0,0,0,65.54,28.33Z" transform="translate(-5.31 -1.96)"/><path d="M65.54,83.36a23.67,23.67,0,1,1,16.74-6.93A23.51,23.51,0,0,1,65.54,83.36Z" transform="translate(-5.31 -1.96)" style="fill:#666"/><path d="M65.54,36.53a23.17,23.17,0,1,1-16.38,6.79,23,23,0,0,1,16.38-6.79m0-1a24.17,24.17,0,1,0,17.09,7.08,24.09,24.09,0,0,0-17.09-7.08Z" transform="translate(-5.31 -1.96)"/><g style="opacity:0.24"><path d="M89.13,54.65c0-.24-.09-.46-.16-.69l-.27.27Z" transform="translate(-5.31 -1.96)" style="fill:#666"/><path d="M88.17,53.7l.57-.57a23.28,23.28,0,0,0-1.25-3.34L85.88,51.4Z" transform="translate(-5.31 -1.96)" style="fill:#666"/><path d="M85.88,57.06l2.3,2.3,1.45-1.45c0-.64-.13-1.29-.23-1.92l-1.22-1.22Z" transform="translate(-5.31 -1.96)" style="fill:#666"/><rect x="52.61" y="72.41" width="3.24" height="3.25" transform="translate(-41.77 58.07) rotate(-45)" style="fill:#666"/><path d="M83,48.57l2.3,2.3,1.8-1.8a21,21,0,0,0-1.28-2.26l-.53-.53Z" transform="translate(-5.31 -1.96)" style="fill:#666"/><path d="M71.47,36.46l-.7-.16.43.43Z" transform="translate(-5.31 -1.96)" style="fill:#666"/><path d="M74,39.56l1.63-1.63a25.14,25.14,0,0,0-3.35-1.24l-.57.57Z" transform="translate(-5.31 -1.96)" style="fill:#666"/><path d="M76.86,42.39l2.29-2.29-.54-.54a20.8,20.8,0,0,0-2.25-1.27l-1.8,1.8Z" transform="translate(-5.31 -1.96)" style="fill:#666"/><path d="M68.37,39.56l2.29-2.29L69.44,36c-.64-.11-1.27-.18-1.92-.23l-1.45,1.45Z" transform="translate(-5.31 -1.96)" style="fill:#666"/><rect x="58.27" y="72.41" width="3.24" height="3.25" transform="translate(-40.12 62.07) rotate(-45)" style="fill:#666"/><rect x="55.44" y="69.58" width="3.24" height="3.25" transform="translate(-38.94 59.25) rotate(-45)" style="fill:#666"/><rect x="61.09" y="75.24" width="3.24" height="3.25" transform="translate(-41.29 64.9) rotate(-45)" style="fill:#666"/><path d="M83,71.2l2.3,2.3.5-.5a21.45,21.45,0,0,0,1.3-2.28l-1.81-1.81Z" transform="translate(-5.31 -1.96)" style="fill:#666"/><path d="M85.88,62.71l2.3,2.3,1.22-1.22a17.41,17.41,0,0,0,.23-1.92l-1.45-1.45Z" transform="translate(-5.31 -1.96)" style="fill:#666"/><path d="M89,65.81c.06-.23.12-.46.16-.7l-.43.43Z" transform="translate(-5.31 -1.96)" style="fill:#666"/><path d="M59.61,83.32c.23.06.45.11.69.16l-.42-.42Z" transform="translate(-5.31 -1.96)" style="fill:#666"/><path d="M66.53,35.75c-.66,0-1.32,0-2,0l1,1Z" transform="translate(-5.31 -1.96)" style="fill:#666"/><path d="M41.95,65.12c0,.23.11.47.16.7l.27-.27Z" transform="translate(-5.31 -1.96)" style="fill:#666"/><path d="M45.21,57.07l-2.3-2.3L41.7,56c-.11.64-.18,1.27-.23,1.92l1.45,1.45Z" transform="translate(-5.31 -1.96)" style="fill:#666"/><path d="M41.4,58.91c0,.65,0,1.31,0,2l1-1Z" transform="translate(-5.31 -1.96)" style="fill:#666"/><path d="M42.91,66.08l-.57.57A25.14,25.14,0,0,0,43.58,70l1.63-1.63Z" transform="translate(-5.31 -1.96)" style="fill:#666"/><path d="M45.21,62.72l-2.3-2.3-1.45,1.45c0,.64.12,1.28.23,1.92L42.92,65Z" transform="translate(-5.31 -1.96)" style="fill:#666"/><path d="M57.05,80.22l-1.62,1.62a23.27,23.27,0,0,0,3.34,1.25l.57-.57Z" transform="translate(-5.31 -1.96)" style="fill:#666"/><path d="M54.23,77.39l-2.29,2.29.53.53a21,21,0,0,0,2.26,1.28l1.8-1.8Z" transform="translate(-5.31 -1.96)" style="fill:#666"/><path d="M48,71.21l-2.3-2.3-1.8,1.8A20.81,20.81,0,0,0,45.21,73l.54.54Z" transform="translate(-5.31 -1.96)" style="fill:#666"/><rect x="63.92" y="72.41" width="3.24" height="3.25" transform="translate(-38.46 66.07) rotate(-45)" style="fill:#666"/><path d="M59.35,37.27l-.57-.57a21.59,21.59,0,0,0-3.34,1.24l1.62,1.62Z" transform="translate(-5.31 -1.96)" style="fill:#666"/><path d="M60.32,36.3l-.7.16.27.27Z" transform="translate(-5.31 -1.96)" style="fill:#666"/><path d="M42.11,54c-.06.23-.11.47-.16.7l.43-.43Z" transform="translate(-5.31 -1.96)" style="fill:#666"/><path d="M62.72,39.56,65,37.27l-1.45-1.45c-.65,0-1.28.12-1.92.23l-1.22,1.22Z" transform="translate(-5.31 -1.96)" style="fill:#666"/><path d="M45.21,51.41l-1.62-1.62a21.59,21.59,0,0,0-1.24,3.34l.57.57Z" transform="translate(-5.31 -1.96)" style="fill:#666"/><path d="M48,48.58l-2.3-2.3-.5.5a19.7,19.7,0,0,0-1.29,2.28l1.8,1.8Z" transform="translate(-5.31 -1.96)" style="fill:#666"/><path d="M54.23,42.39l2.29-2.29-1.8-1.8a19.7,19.7,0,0,0-2.28,1.29l-.5.5Z" transform="translate(-5.31 -1.96)" style="fill:#666"/><path d="M85.88,68.37,87.5,70a22.68,22.68,0,0,0,1.24-3.34l-.57-.57Z" transform="translate(-5.31 -1.96)" style="fill:#666"/><rect x="44.12" y="52.61" width="3.24" height="3.25" transform="translate(-30.26 46.27) rotate(-45)" style="fill:#666"/><rect x="44.12" y="63.92" width="3.24" height="3.25" transform="translate(-38.26 49.59) rotate(-45)" style="fill:#666"/><rect x="44.12" y="58.27" width="3.24" height="3.25" transform="translate(-34.26 47.93) rotate(-45)" style="fill:#666"/><rect x="46.95" y="66.75" width="3.24" height="3.25" transform="translate(-39.43 52.42) rotate(-45)" style="fill:#666"/><rect x="49.78" y="41.29" width="3.24" height="3.25" transform="translate(-20.6 46.96) rotate(-45)" style="fill:#666"/><rect x="46.95" y="72.41" width="3.24" height="3.25" transform="translate(-43.43 54.07) rotate(-45)" style="fill:#666"/><rect x="46.95" y="44.12" width="3.24" height="3.25" transform="translate(-23.43 45.79) rotate(-45)" style="fill:#666"/><rect x="46.95" y="49.78" width="3.24" height="3.25" transform="translate(-27.43 47.45) rotate(-45)" style="fill:#666"/><rect x="55.44" y="75.24" width="3.24" height="3.25" transform="translate(-42.94 60.9) rotate(-45)" style="fill:#666"/><rect x="72.41" y="75.24" width="3.24" height="3.25" transform="translate(-37.97 72.9) rotate(-45)" style="fill:#666"/><rect x="78.06" y="75.24" width="3.24" height="3.25" transform="translate(-36.32 76.9) rotate(-45)" style="fill:#666"/><rect x="49.78" y="75.24" width="3.24" height="3.25" transform="translate(-44.6 56.9) rotate(-45)" style="fill:#666"/><rect x="69.58" y="78.06" width="3.24" height="3.25" transform="translate(-40.8 71.73) rotate(-45)" style="fill:#666"/><rect x="55.44" y="41.29" width="3.24" height="3.25" transform="translate(-18.94 50.96) rotate(-45)" style="fill:#666"/><rect x="63.92" y="78.06" width="3.24" height="3.25" transform="translate(-42.46 67.73) rotate(-45)" style="fill:#666"/><rect x="58.27" y="78.06" width="3.24" height="3.25" transform="translate(-44.12 63.73) rotate(-45)" style="fill:#666"/><rect x="80.89" y="66.75" width="3.24" height="3.25" transform="translate(-29.49 76.42) rotate(-45)" style="fill:#666"/><rect x="83.72" y="58.27" width="3.24" height="3.25" transform="translate(-22.66 75.93) rotate(-45)" style="fill:#666"/><rect x="66.75" y="75.24" width="3.24" height="3.25" transform="translate(-39.63 68.9) rotate(-45)" style="fill:#666"/><rect x="83.72" y="63.92" width="3.24" height="3.25" transform="translate(-26.66 77.59) rotate(-45)" style="fill:#666"/><rect x="78.06" y="69.58" width="3.24" height="3.25" transform="translate(-32.32 75.25) rotate(-45)" style="fill:#666"/><rect x="75.24" y="72.41" width="3.24" height="3.25" transform="translate(-35.14 74.07) rotate(-45)" style="fill:#666"/><rect x="69.58" y="72.41" width="3.24" height="3.25" transform="translate(-36.8 70.07) rotate(-45)" style="fill:#666"/><rect x="72.41" y="69.58" width="3.24" height="3.25" transform="translate(-33.97 71.25) rotate(-45)" style="fill:#666"/><rect x="80.89" y="49.78" width="3.24" height="3.25" transform="translate(-17.49 71.45) rotate(-45)" style="fill:#666"/><rect x="69.58" y="38.47" width="3.24" height="3.25" transform="translate(-12.8 60.13) rotate(-45)" style="fill:#666"/><rect x="83.72" y="52.61" width="3.24" height="3.25" transform="translate(-18.66 74.27) rotate(-45)" style="fill:#666"/><rect x="63.92" y="38.47" width="3.24" height="3.25" transform="translate(-14.46 56.13) rotate(-45)" style="fill:#666"/><rect x="72.41" y="41.29" width="3.24" height="3.25" transform="translate(-13.97 62.96) rotate(-45)" style="fill:#666"/><rect x="58.27" y="38.47" width="3.24" height="3.25" transform="translate(-16.12 52.13) rotate(-45)" style="fill:#666"/><rect x="78.06" y="41.29" width="3.24" height="3.25" transform="translate(-12.32 66.96) rotate(-45)" style="fill:#666"/><rect x="80.89" y="44.12" width="3.24" height="3.25" transform="translate(-13.49 69.79) rotate(-45)" style="fill:#666"/><path d="M89.69,60.87c0-.65,0-1.32,0-2l-1,1Z" transform="translate(-5.31 -1.96)" style="fill:#666"/><rect x="80.89" y="55.44" width="3.24" height="3.25" transform="translate(-21.49 73.1) rotate(-45)" style="fill:#666"/><rect x="78.06" y="63.92" width="3.24" height="3.25" transform="translate(-28.32 73.59) rotate(-45)" style="fill:#666"/><rect x="78.06" y="52.61" width="3.24" height="3.25" transform="translate(-20.32 70.27) rotate(-45)" style="fill:#666"/><rect x="80.89" y="61.09" width="3.24" height="3.25" transform="translate(-25.49 74.76) rotate(-45)" style="fill:#666"/><rect x="78.06" y="58.27" width="3.24" height="3.25" transform="translate(-24.32 71.93) rotate(-45)" style="fill:#666"/><rect x="78.06" y="46.95" width="3.24" height="3.25" transform="translate(-16.32 68.62) rotate(-45)" style="fill:#666"/><path d="M62.71,80.22l-2.29,2.29,1.22,1.22c.63.11,1.27.18,1.92.23L65,82.52Z" transform="translate(-5.31 -1.96)" style="fill:#666"/><rect x="75.24" y="49.78" width="3.24" height="3.25" transform="translate(-19.14 67.45) rotate(-45)" style="fill:#666"/><rect x="55.44" y="63.92" width="3.24" height="3.25" transform="translate(-34.94 57.59) rotate(-45)" style="fill:#666"/><rect x="63.92" y="66.75" width="3.24" height="3.25" transform="translate(-34.46 64.42) rotate(-45)" style="fill:#666"/><rect x="58.27" y="66.75" width="3.24" height="3.25" transform="translate(-36.12 60.42) rotate(-45)" style="fill:#666"/><rect x="75.24" y="66.75" width="3.24" height="3.25" transform="translate(-31.14 72.42) rotate(-45)" style="fill:#666"/><rect x="75.24" y="44.12" width="3.24" height="3.25" transform="translate(-15.14 65.79) rotate(-45)" style="fill:#666"/><rect x="52.61" y="61.09" width="3.24" height="3.25" transform="translate(-33.77 54.76) rotate(-45)" style="fill:#666"/><rect x="66.75" y="69.58" width="3.24" height="3.25" transform="translate(-35.63 67.25) rotate(-45)" style="fill:#666"/><rect x="72.41" y="63.92" width="3.24" height="3.25" transform="translate(-29.97 69.59) rotate(-45)" style="fill:#666"/><rect x="69.58" y="66.75" width="3.24" height="3.25" transform="translate(-32.8 68.42) rotate(-45)" style="fill:#666"/><rect x="61.09" y="69.58" width="3.24" height="3.25" transform="translate(-37.29 63.25) rotate(-45)" style="fill:#666"/><rect x="52.61" y="66.75" width="3.24" height="3.25" transform="translate(-37.77 56.42) rotate(-45)" style="fill:#666"/><rect x="52.61" y="49.78" width="3.24" height="3.25" transform="translate(-25.77 51.45) rotate(-45)" style="fill:#666"/><rect x="49.78" y="46.95" width="3.24" height="3.25" transform="translate(-24.6 48.62) rotate(-45)" style="fill:#666"/><rect x="49.78" y="63.92" width="3.24" height="3.25" transform="translate(-36.6 53.59) rotate(-45)" style="fill:#666"/><rect x="52.61" y="44.12" width="3.24" height="3.25" transform="translate(-21.77 49.79) rotate(-45)" style="fill:#666"/><rect x="46.95" y="61.09" width="3.24" height="3.25" transform="translate(-35.43 50.76) rotate(-45)" style="fill:#666"/><rect x="46.95" y="55.44" width="3.24" height="3.25" transform="translate(-31.43 49.1) rotate(-45)" style="fill:#666"/><rect x="49.78" y="58.27" width="3.24" height="3.25" transform="translate(-32.6 51.93) rotate(-45)" style="fill:#666"/><rect x="69.58" y="44.12" width="3.24" height="3.25" transform="translate(-16.8 61.79) rotate(-45)" style="fill:#666"/><rect x="66.75" y="41.29" width="3.24" height="3.25" transform="translate(-15.63 58.96) rotate(-45)" style="fill:#666"/><rect x="72.41" y="46.95" width="3.24" height="3.25" transform="translate(-17.97 64.62) rotate(-45)" style="fill:#666"/><rect x="63.92" y="44.12" width="3.24" height="3.25" transform="translate(-18.46 57.79) rotate(-45)" style="fill:#666"/><rect x="61.09" y="41.29" width="3.24" height="3.25" transform="translate(-17.29 54.96) rotate(-45)" style="fill:#666"/><rect x="55.44" y="46.95" width="3.24" height="3.25" transform="translate(-22.94 52.62) rotate(-45)" style="fill:#666"/><rect x="49.78" y="69.58" width="3.24" height="3.25" transform="translate(-40.6 55.25) rotate(-45)" style="fill:#666"/><rect x="58.27" y="44.12" width="3.24" height="3.25" transform="translate(-20.12 53.79) rotate(-45)" style="fill:#666"/><rect x="63.92" y="49.78" width="3.24" height="3.25" transform="translate(-22.46 59.45) rotate(-45)" style="fill:#666"/><rect x="66.75" y="46.95" width="3.24" height="3.25" transform="translate(-19.63 60.62) rotate(-45)" style="fill:#666"/><rect x="66.75" y="52.61" width="3.24" height="3.25" transform="translate(-23.63 62.27) rotate(-45)" style="fill:#666"/><rect x="75.24" y="61.09" width="3.24" height="3.25" transform="translate(-27.14 70.76) rotate(-45)" style="fill:#666"/><rect x="69.58" y="49.78" width="3.24" height="3.25" transform="translate(-20.8 63.45) rotate(-45)" style="fill:#666"/><rect x="61.09" y="46.95" width="3.24" height="3.25" transform="translate(-21.29 56.62) rotate(-45)" style="fill:#666"/><rect x="58.27" y="49.78" width="3.24" height="3.25" transform="translate(-24.12 55.45) rotate(-45)" style="fill:#666"/><rect x="66.75" y="58.27" width="3.24" height="3.25" transform="translate(-27.63 63.93) rotate(-45)" style="fill:#666"/><rect x="72.41" y="52.61" width="3.24" height="3.25" transform="translate(-21.97 66.27) rotate(-45)" style="fill:#666"/><rect x="58.27" y="55.44" width="3.24" height="3.25" transform="translate(-28.12 57.1) rotate(-45)" style="fill:#666"/><rect x="49.78" y="52.61" width="3.24" height="3.25" transform="translate(-28.6 50.27) rotate(-45)" style="fill:#666"/><rect x="61.09" y="63.92" width="3.24" height="3.25" transform="translate(-33.29 61.59) rotate(-45)" style="fill:#666"/><rect x="75.24" y="55.44" width="3.24" height="3.25" transform="translate(-23.14 69.1) rotate(-45)" style="fill:#666"/><rect x="58.27" y="61.09" width="3.24" height="3.25" transform="translate(-32.12 58.76) rotate(-45)" style="fill:#666"/><rect x="61.09" y="58.27" width="3.24" height="3.25" transform="translate(-29.29 59.93) rotate(-45)" style="fill:#666"/><rect x="61.09" y="52.61" width="3.24" height="3.25" transform="translate(-25.29 58.27) rotate(-45)" style="fill:#666"/><rect x="69.58" y="61.09" width="3.24" height="3.25" transform="translate(-28.8 66.76) rotate(-45)" style="fill:#666"/><rect x="63.92" y="61.09" width="3.24" height="3.25" transform="translate(-30.46 62.76) rotate(-45)" style="fill:#666"/><rect x="66.75" y="63.92" width="3.24" height="3.25" transform="translate(-31.63 65.59) rotate(-45)" style="fill:#666"/><rect x="63.92" y="55.44" width="3.24" height="3.25" transform="translate(-26.46 61.1) rotate(-45)" style="fill:#666"/><rect x="69.58" y="55.44" width="3.24" height="3.25" transform="translate(-24.8 65.1) rotate(-45)" style="fill:#666"/><rect x="55.44" y="52.61" width="3.24" height="3.25" transform="translate(-26.94 54.27) rotate(-45)" style="fill:#666"/><rect x="55.44" y="58.27" width="3.24" height="3.25" transform="translate(-30.94 55.93) rotate(-45)" style="fill:#666"/><rect x="80.89" y="72.41" width="3.24" height="3.25" transform="translate(-33.49 78.07) rotate(-45)" style="fill:#666"/><path d="M71.73,82.51l.57.57a22.68,22.68,0,0,0,3.34-1.24L74,80.22Z" transform="translate(-5.31 -1.96)" style="fill:#666"/><rect x="72.41" y="58.27" width="3.24" height="3.25" transform="translate(-25.97 67.93) rotate(-45)" style="fill:#666"/><path d="M68.37,80.22l-2.29,2.29L67.53,84a17.4,17.4,0,0,0,1.92-.23l1.22-1.22Z" transform="translate(-5.31 -1.96)" style="fill:#666"/><path d="M70.76,83.48c.24,0,.47-.11.7-.16l-.27-.27Z" transform="translate(-5.31 -1.96)" style="fill:#666"/><path d="M76.85,77.39l-2.29,2.29,1.81,1.81a21.45,21.45,0,0,0,2.28-1.3l.5-.5Z" transform="translate(-5.31 -1.96)" style="fill:#666"/><rect x="52.61" y="55.44" width="3.24" height="3.25" transform="translate(-29.77 53.1) rotate(-45)" style="fill:#666"/><path d="M64.56,84c.65,0,1.32,0,2,0l-1-1Z" transform="translate(-5.31 -1.96)" style="fill:#666"/><path d="M82.89,76.7A23.08,23.08,0,0,0,85,74.23c.16-.21.3-.42.45-.63s.27-.4.4-.6l-.5.5L83,71.2l2.29-2.29,1.81,1.81c.13-.24.24-.48.35-.72l-1.63-1.63,2.29-2.29.57.57a8.2,8.2,0,0,0,.23-.84l-.27-.27.43-.43q.16-.65.25-1.32L88.17,65l-2.3-2.3,2.29-2.29,1.45,1.45c0-.33.06-.66.07-1l-1-1,1-1q0-.5-.06-1l-1.45,1.45-2.3-2.3,2.29-2.29L89.39,56c-.07-.45-.16-.91-.26-1.34l-.42-.42L89,54c-.06-.28-.14-.55-.23-.83l-.57.57-2.3-2.3,1.62-1.62a7.42,7.42,0,0,0-.35-.71l-1.8,1.8L83,48.57l2.29-2.29.53.53q-.2-.33-.42-.64c-.14-.21-.29-.42-.44-.62a23.24,23.24,0,0,0-2.11-2.48l-.26-.28-.27-.25a23.24,23.24,0,0,0-2.48-2.11L79.26,40c-.21-.16-.42-.3-.64-.43l.54.54-2.29,2.29-2.3-2.3,1.8-1.8c-.23-.13-.47-.24-.71-.35L74,39.56l-2.3-2.3.57-.57-.83-.23-.27.27-.43-.43c-.44-.1-.88-.19-1.33-.25l1.22,1.22-2.29,2.29-2.3-2.3,1.45-1.45q-.5-.05-1-.06l-1,1-1-1c-.34,0-.67,0-1,.07L65,37.27l-2.29,2.29-2.3-2.3L61.64,36q-.66.11-1.32.25l-.43.43-.27-.27c-.28.07-.57.14-.84.23l.57.57-2.29,2.29-1.62-1.62a6.8,6.8,0,0,0-.72.35l1.8,1.8-2.29,2.29-2.3-2.3.5-.5-.6.4-.63.45a23.09,23.09,0,0,0-2.47,2.11l-.28.26-.26.28a23.09,23.09,0,0,0-2.11,2.47c-.16.21-.3.42-.45.63s-.27.4-.4.6l.5-.5,2.3,2.3-2.29,2.29-1.8-1.8a6.8,6.8,0,0,0-.35.72l1.62,1.62L42.92,53.7l-.57-.57c-.09.28-.16.56-.23.84l.27.27-.43.43q-.15.66-.25,1.32l1.22-1.22,2.3,2.3-2.29,2.29-1.45-1.45c0,.33-.06.66-.07,1l1,1-1,1q0,.5.06,1l1.45-1.45,2.3,2.3L42.92,65,41.7,63.79c.06.45.16.89.25,1.33l.43.43-.27.27c.07.28.14.55.23.83l.57-.57,2.3,2.3L43.58,70c.11.24.23.48.35.71l1.8-1.8,2.3,2.3L45.75,73.5,45.21,73c.13.22.28.43.43.64s.29.42.44.62a23.23,23.23,0,0,0,2.11,2.48l.25.27.28.26a23.23,23.23,0,0,0,2.48,2.11l.62.44q.31.22.64.42l-.53-.53,2.29-2.29,2.3,2.3-1.8,1.8a7.42,7.42,0,0,0,.71.35l1.62-1.62,2.3,2.3-.57.57c.28.08.56.16.83.23l.27-.27.42.42c.43.11.88.19,1.34.26l-1.22-1.22,2.29-2.29,2.3,2.3L63.56,84q.5.05,1,.06l1-1,1,1c.34,0,.68,0,1-.07l-1.45-1.45,2.29-2.29,2.3,2.3-1.22,1.22q.67-.1,1.32-.25l.43-.43.27.27a8.2,8.2,0,0,0,.84-.23l-.57-.57L74,80.22l1.63,1.63.72-.35-1.81-1.81,2.29-2.29,2.3,2.3-.5.5.6-.4.63-.45a23.08,23.08,0,0,0,2.47-2.11l.28-.26ZM84.81,74l-2.29,2.29L80.22,74l2.29-2.29ZM74,62.18l-2.3-2.3L74,57.6l2.3,2.3Zm2.82-1.76,2.3,2.3L76.86,65l-2.3-2.3ZM68.9,57.06l2.29-2.29,2.3,2.3L71.2,59.36Zm1.76,2.84-2.29,2.29-2.3-2.3,2.29-2.29Zm-2.29-3.37-2.3-2.3,2.29-2.29,2.3,2.3Zm-.54.54-2.29,2.29-2.3-2.3,2.29-2.29Zm-5.12-.54-2.3-2.3,2.29-2.29,2.3,2.3Zm-.54.54-2.29,2.29-2.3-2.3,2.29-2.29Zm.53.53,2.3,2.3-2.29,2.29-2.3-2.3Zm-.53,5.13L59.89,65l-2.3-2.3,2.29-2.29Zm.53.53,2.3,2.3-2.29,2.29-2.3-2.3Zm.54-.54,2.29-2.29,2.3,2.3L65.55,65Zm5.12.54,2.3,2.3-2.29,2.29-2.3-2.3Zm.54-.54,2.29-2.29,2.3,2.3L71.2,65Zm5.66-5.66,2.29-2.29,2.3,2.3-2.29,2.29ZM74,56.53l-2.3-2.3L74,51.94l2.3,2.3ZM71.2,53.7l-2.3-2.3,2.29-2.29,2.3,2.3Zm-2.83-2.83-2.3-2.3,2.29-2.29,2.3,2.3Zm-.54.54L65.55,53.7l-2.3-2.3,2.29-2.29Zm-5.12-.54-2.3-2.3,2.29-2.29,2.3,2.3Zm-.54.54L59.89,53.7l-2.3-2.3,2.29-2.29Zm-2.83,2.83-2.29,2.29-2.3-2.3,2.29-2.29Zm-2.83,2.83-2.29,2.29-2.3-2.3,2.29-2.29Zm.53.53,2.3,2.3-2.29,2.29-2.3-2.3Zm-.53,5.13L54.23,65l-2.3-2.3,2.29-2.29Zm.53.53,2.3,2.3-2.29,2.29-2.3-2.3Zm2.83,2.83,2.3,2.3-2.29,2.29-2.3-2.3Zm2.83,2.83,2.3,2.3L62.72,73.5l-2.3-2.3Zm.54-.54,2.29-2.29,2.3,2.3-2.29,2.29Zm5.12.54,2.3,2.3L68.37,73.5l-2.3-2.3Zm.54-.54,2.29-2.29,2.3,2.3L71.2,70.67Zm2.83-2.83L74,63.25l2.3,2.3L74,67.84Zm5.12.54,2.3,2.3-2.29,2.29-2.3-2.3Zm.54-.54,2.29-2.29,2.3,2.3-2.29,2.29Zm2.83-2.83,2.29-2.29,2.3,2.3L82.52,65Zm-.53-.53-2.3-2.3,2.29-2.29,2.3,2.3Zm.53-5.13,2.29-2.29,2.3,2.3-2.29,2.29Zm-.53-.53-2.3-2.3,2.29-2.29,2.3,2.3ZM76.86,53.7l-2.3-2.3,2.29-2.29,2.3,2.3Zm.53-5.13,2.29-2.29,2.3,2.3-2.29,2.29ZM76.86,48l-2.3-2.3,2.29-2.29,2.3,2.3Zm-.54.54L74,50.87l-2.3-2.3L74,46.28ZM71.2,48l-2.3-2.3,2.29-2.29,2.3,2.3Zm-2.83-2.83-2.3-2.3,2.29-2.29,2.3,2.3Zm-.54.54L65.55,48l-2.3-2.3,2.29-2.29Zm-5.12-.54-2.3-2.3,2.29-2.29,2.3,2.3Zm-.54.54L59.89,48l-2.3-2.3,2.29-2.29Zm-2.83,2.83-2.29,2.29-2.3-2.3,2.29-2.29ZM54.23,48l-2.3-2.3,2.29-2.29,2.3,2.3Zm-.54.54L51.4,50.87l-2.3-2.3,2.29-2.29Zm.53.53,2.3,2.3L54.23,53.7l-2.3-2.3Zm-.53,5.13L51.4,56.53l-2.3-2.3,2.29-2.29Zm-2.83,2.83-2.29,2.29-2.3-2.3,2.29-2.29Zm.53.53,2.3,2.3L51.4,62.18l-2.3-2.3Zm-.53,5.13L48.58,65l-2.3-2.3,2.29-2.29Zm.53.53,2.3,2.3L51.4,67.84l-2.3-2.3Zm2.83,2.83,2.3,2.3-2.29,2.29-2.3-2.3Zm-.53,5.13L51.4,73.5l-2.3-2.3,2.29-2.29Zm.53.53,2.3,2.3-2.29,2.29L51.93,74Zm.54-.54,2.29-2.29,2.3,2.3L57.06,73.5Zm5.12.54,2.3,2.3-2.29,2.29L57.59,74Zm2.83,2.83,2.3,2.3-2.29,2.29-2.3-2.3Zm.54-.54,2.29-2.29,2.3,2.3-2.29,2.29Zm5.12.54,2.3,2.3-2.29,2.29-2.3-2.3ZM68.9,74l2.29-2.29,2.3,2.3L71.2,76.33Zm2.83-2.83L74,68.91l2.3,2.3L74,73.5Zm5.12.54,2.3,2.3-2.29,2.29L74.56,74Zm.54-.54,2.29-2.29,2.3,2.3L79.69,73.5Zm5.13-.53-2.3-2.3,2.29-2.29,2.3,2.3Zm5.12-5.12-2.29,2.29L83,65.54l2.29-2.29Zm0-5.66-2.29,2.29L83,59.89l2.29-2.29Zm0-5.66-2.29,2.29L83,54.23l2.29-2.29Zm-2.83-2.83L82.52,53.7l-2.3-2.3,2.29-2.29Zm0-5.66L82.52,48l-2.3-2.3,2.29-2.29Zm-5.13-5.13,2.3,2.3-2.29,2.29-2.3-2.3Zm-3.36,2.3L74,45.21l-2.3-2.3L74,40.62ZM71.2,37.8l2.3,2.3L71.2,42.39l-2.3-2.3Zm-5.66,0,2.3,2.3-2.29,2.29-2.3-2.3Zm-5.66,0,2.3,2.3-2.29,2.29-2.3-2.3Zm-2.83,2.83,2.3,2.3-2.29,2.29-2.3-2.3Zm-5.66,0,2.3,2.3L51.4,45.21l-2.3-2.3Zm-5.12,5.12,2.29-2.29,2.3,2.3L48.58,48Zm2.29,3.37,2.3,2.3L48.58,53.7l-2.3-2.3Zm-5.12,5.12,2.29-2.29,2.3,2.3-2.29,2.29Zm0,5.66,2.29-2.29,2.3,2.3-2.29,2.29Zm0,5.66,2.29-2.29,2.3,2.3-2.29,2.29Zm2.83,2.83,2.29-2.29,2.3,2.3-2.29,2.29Zm0,5.66,2.29-2.29,2.3,2.3-2.29,2.29Zm5.13,5.13-2.3-2.3,2.29-2.29,2.3,2.3Zm3.36-2.3,2.29-2.29,2.3,2.3-2.29,2.29ZM59.89,82l-2.3-2.3,2.29-2.29,2.3,2.3Zm5.66,0-2.3-2.3,2.29-2.29,2.3,2.3Zm5.66,0-2.3-2.3,2.29-2.29,2.3,2.3ZM74,79.16l-2.3-2.3L74,74.57l2.3,2.3Zm5.66,0-2.3-2.3,2.29-2.29,2.3,2.3Z" transform="translate(-5.31 -1.96)"/></g><path d="M65.54,69.08a9.38,9.38,0,1,1,9.38-9.38A9.39,9.39,0,0,1,65.54,69.08Z" transform="translate(-5.31 -1.96)" style="fill:#32332e"/><path d="M65.54,50.82a8.88,8.88,0,1,1-8.88,8.88,8.89,8.89,0,0,1,8.88-8.88m0-1a9.88,9.88,0,1,0,9.88,9.88,9.88,9.88,0,0,0-9.88-9.88Z" transform="translate(-5.31 -1.96)"/><path d="M65.54,36.53A23.17,23.17,0,1,1,42.38,59.7,23.19,23.19,0,0,1,65.54,36.53m0-1A24.17,24.17,0,1,0,89.71,59.7,24.17,24.17,0,0,0,65.54,35.53Z" transform="translate(-5.31 -1.96)"/><text transform="translate(8.32 35.53)" style="font-size:42.042449951171875px;font-family:MyriadPro-Regular, Myriad Pro">{</text><text transform="translate(20.26 88.85) rotate(180)" style="font-size:42.042449951171875px;font-family:MyriadPro-Regular, Myriad Pro">{</text><text transform="translate(20.51 109.23)" style="font-size:42.042449951171875px;font-family:MyriadPro-Regular, Myriad Pro">;</text><text transform="translate(77.08 115.19)" style="font-size:23.244016647338867px;font-family:MyriadPro-Bold, Myriad Pro;font-weight:700">JS</text><path d="M58.23,62.06a8.94,8.94,0,0,1,.3-4.37,7.82,7.82,0,0,1,2.67-3.75,7.14,7.14,0,0,1,8.56-.09,12.5,12.5,0,0,0-4,.17,8.56,8.56,0,0,0-3.34,1.52A9.67,9.67,0,0,0,60,58.33,32.82,32.82,0,0,0,58.23,62.06Z" transform="translate(-5.31 -1.96)" style="fill:#fff"/></svg>