<svg id="Layer_1" data-name="Layer 1" xmlns="http://www.w3.org/2000/svg" viewBox="0 0 126 126"><title>navigation</title><circle cx="63" cy="63" r="63" style="fill:#2196f3"/><g style="opacity:0.36"><path d="M81.09,9.59H79.73L79,9h-.57l-.88-.22h-.88l-1.41-.31L72.09,23.77a41.84,41.84,0,0,1,4.2,1.09l4.8-15.26Zm-25.7-2h-.05l2.44,15.81h0L55.4,7.6Zm-.11,0h-.05L57.7,23.44h0L55.29,7.62Zm-.11,0-.14,0h-.09l-.18,0h-.34q-.91.16-1.82.34h-.26l-.16,0h-.38q-1.26.28-2.5.61l4.13,15.46a41.08,41.08,0,0,1,4.22-.89L55.18,7.64ZM31.27,17.28h0l0,0h0l9.18,13.1,0,0L31.27,17.28Zm-.09.06,0,0h0l9.21,13.08,0,0-9.2-13.09Zm-.09.06q-1,.74-2.06,1.52h0l0,0h0l0,0h0l0,0h0l0,0h0l-.16.13h0l0,0h0l0,0h0l0,0h0l0,0h-.07l0,0h0l0,0h0l0,0h0l-.07.06h0l0,0h0l0,0h0l0,0h0l0,0h0l0,0h0l0,0h0l0,0h0q-.87.71-1.72,1.45l10.54,12a41.29,41.29,0,0,1,3.39-2.67L31.09,17.41ZM13.94,36.65v0L28,44.33l0,0L13.94,36.65Zm-.05.1h0l0,0L27.94,44.4l0,0L13.89,36.74Zm-.05.1-.09.16h0l0,0h0l0,0h0q-.94,1.76-1.76,3.61h0l0,0h0l0,0h0l0,0h0l0,0h0l0,0h0l0,0h0l0,0h0l0,0h0l0,0h0l0,0h0l0,0h0l-.07.17h0v0h0v.27h0v0h0v0h0v0h0v0h0v0h0l0,0h0l-.14.34,14.8,6.08a41.16,41.16,0,0,1,1.85-3.9l-14.08-7.6ZM23,62.35,7,61.7v0H7l16,.63v0Zm0,.08L7,61.81v.05l16,.6v0Zm0,.08L7,61.92v0H7v.24H7v0H7a56.56,56.56,0,0,0,.11,5.67l16-1.11A40.72,40.72,0,0,1,23,62.5Zm3.55,18.18L11.94,87.22l0,.05,14.6-6.55,0,0Zm0,.07L12,87.32l0,0h0l14.59-6.57,0,0Zm0,.07L12,87.42c.17.37.34.73.51,1.1h0l0,0h0v0h0v0h0v0h0v.17h0l0,0h0l0,0h0l0,0h0l0,0h0l0,0h0l0,0h0l0,0h0q.9,1.83,1.93,3.59l13.81-8.07a41.52,41.52,0,0,1-2-3.84ZM37.86,95.58l-10.2,12.33,0,0h0L37.89,95.61l0,0Zm.06.05L27.75,108h0l0,0L37.95,95.66l0,0Zm.06.05L27.83,108.05q.76.62,1.54,1.22h0l0,0h0l0,0h0l0,0h0l0,0h0l.22.17h0l0,0h0l0,0h0l0,0h0l0,0h0l0,0h0l0,0h0l0,0h0l0,0h0l0,0h0l0,0h0l0,0h0l0,0h0l0,0h0l0,0h0l0,0h0l0,0h.33l0,0h0l0,0h0l0,0h.37l0,0,0,0h.07l0,0h.13l0,0h0l0,0h0l0,0h0l0,0h0l0,0h0l0,0h0l.19.13h0l0,0h0l0,0h0l0,0h0l0,0h0l.63.42,8.78-13.37A40.73,40.73,0,0,1,38,95.69Zm16.68,8.21h0l-3.68,15.57H51l3.66-15.58Zm.08,0h0l-3.65,15.58h.05l3.63-15.58Zm4.29.76a41.2,41.2,0,0,1-4.25-.75l-3.62,15.59,1.29.28h.37l.18,0h.94l.16,0H55l.1,0h.94l.22,0h.53l.26,0,2-15.88Zm14.3-.78h0l3.65,15.58H77L73.32,103.9Zm.08,0h0L77,119.46h.05l-3.7-15.57Zm4.18-1.23a41.26,41.26,0,0,1-4.14,1.22l3.71,15.56h.15l.15,0h.17q2.68-.66,5.28-1.58l-5.32-15.09ZM90.1,95.58l0,0L100.23,108l0,0h0L90.1,95.58Zm.06-.05,0,0,10.19,12.34h0L90.16,95.53Zm3.2-2.95a41.09,41.09,0,0,1-3.17,2.92l10.21,12.32.25-.21h0l0,0h0l.11-.09h0l0,0h0l0,0h0l0,0h0l0,0h0l0,0h0l0,0h0l0,0h0l0,0h0q1.48-1.27,2.88-2.64h0l0,0h0l0,0h0l0,0h0l0,0h0l0,0h0l0,0,0,0h0l0,0h0l.07-.06h0l0,0h0l0,0h0l0,0h0l0,0h0l.39-.4L93.36,92.58Zm8-11.85,0,0L116,87.3l0-.05L101.4,80.73Zm0-.07,0,0L116,87.2h0l0,0-14.63-6.49ZM103,76.58a41.74,41.74,0,0,1-1.54,4l14.63,6.47h0v0h0v0h0V86.8h0v0h0l.23-.54h0l0-.08h0l0-.08h0l0,0h0l0,0h0l0,0h0l0,0h0c.17-.42.34-.84.51-1.26h0l0,0h0l0,0h0l0,0h0l0,0h0l0,0h0l0,0h0l0,0h0l0,0h0l0,0h0l0,0h0l0-.08h0l.33-.9h0v0h0v0h0l0,0h0q.28-.79.54-1.59L103,76.58Zm18-14.85-16,.63v0l16-.61v-.06Zm0-.11-16,.66v0l16-.64v-.05Zm-.57-6L104.55,58a40.82,40.82,0,0,1,.41,4.28l16-.67h0v-.14h0v0h0v0h0v0h0v0h0v0h0q-.14-2.82-.55-5.59ZM114,36.68l-14,7.66,0,0,14.06-7.64v0Zm-.05-.1-14,7.68,0,0,14-7.67,0,0h0Zm-3.18-5.15L97.65,40.56a41.48,41.48,0,0,1,2.28,3.68l14-7.7q-.53-1-1.09-1.9h0l0,0h0l0,0h0l0,0h0l0,0h0l0,0h0l0,0h0l0,0h0l0-.06h0v-.19h0l0,0h0l0,0h0l0,0h0l-.12-.2h0l0,0h0l0,0h0q-.72-1.15-1.5-2.27ZM96.72,17.29l-9.18,13.1,0,0,9.2-13.09h0l0,0Zm-.09-.06L87.47,30.34l0,0,9.17-13.11,0,0h0ZM91.49,14l-7.71,14a40.78,40.78,0,0,1,3.66,2.27l9.15-13.13-1.16-.78h0l0,0h0l0,0h0l0,0h0l0,0h0l0,0h0l0,0h0l0,0h0l0,0h0l0,0h0l0,0h0l-.12-.08h0l0,0h0l0,0h0l0,0h0l0,0h0l0,0h0l0,0h0l0,0h0l0,0h0l0,0h0l0,0h0l0,0h0l0,0h0l0,0h0l-.16-.1h0l0,0h0l0,0h0l0,0h0l0,0h0l0,0h0l0,0h0l0,0h0l0,0h0l0,0h0q-.86-.53-1.74-1h0l0,0h0l0,0h0l0,0h0l0,0h0l0,0h0l0,0h0l-.16-.09h0l0,0h0l0,0h-.12l0,0h0Z" transform="translate(-1 -1)" style="fill:#06395b"/></g><polygon points="32.23 112.07 32.13 112.14 47.77 53.18 93.94 13.31 93.77 14.43 93.88 14.36 78.23 73.32 32.06 113.19 32.23 112.07" style="fill:#fff"/><circle cx="63" cy="63" r="11" style="fill:#0c5689"/></svg>