<svg id="Layer_1" data-name="Layer 1" xmlns="http://www.w3.org/2000/svg" viewBox="0 0 126 126"><title>remember</title><circle cx="63" cy="63" r="63" style="fill:#90a4ae"/><path d="M30.42,54c0-.19-.06-.4-.09-.6h.07A4.82,4.82,0,0,0,30.42,54Z" transform="translate(-1 -1)" style="fill:#ff7958"/><path d="M45.15,91.26H76.88a0,0,0,0,1,0,0v11.48a8.41,8.41,0,0,1-8.41,8.41H53.56a8.41,8.41,0,0,1-8.41-8.41V91.26A0,0,0,0,1,45.15,91.26Z" style="fill:#565551"/><path d="M56.61,110.93h8.81a0,0,0,0,1,0,0v.35a1.62,1.62,0,0,1-1.62,1.62H58.23a1.62,1.62,0,0,1-1.62-1.62v-.35A0,0,0,0,1,56.61,110.93Z" style="fill:#7c7c7c"/><rect x="43.96" y="93.52" width="34.11" height="2.35" rx="0.97" ry="0.97" style="fill:#7c7c7c"/><rect x="43.96" y="97.69" width="34.11" height="2.35" rx="0.97" ry="0.97" style="fill:#7c7c7c"/><rect x="43.96" y="101.78" width="34.11" height="2.35" rx="0.97" ry="0.97" style="fill:#7c7c7c"/><path d="M93.67,42.56c0,.9,0,1.79-.11,2.66h0c-.92,22.13-15.78,18.4-15.78,47H46.17c0-28.63-14.81-24.9-15.73-47h0c-.07-.87-.11-1.76-.11-2.66,0-.58,0-1.16,0-1.74v-.07a31.59,31.59,0,0,1,63.14-1.46.49.49,0,0,1,0,.12C93.62,40.44,93.67,41.5,93.67,42.56Z" transform="translate(-1 -1)" style="fill:#ffee58"/></svg>