<svg id="Layer_1" data-name="Layer 1" xmlns="http://www.w3.org/2000/svg" viewBox="0 0 126 126"><title>weather</title><circle cx="63" cy="63" r="63" style="fill:#80deea"/><circle cx="75.52" cy="41.52" r="27.51" style="fill:#fff176"/><path d="M106.29,61.34A18.26,18.26,0,0,1,75.76,74.86a23.91,23.91,0,0,1-24.09,3.89A21.92,21.92,0,1,1,38.92,39a22.1,22.1,0,0,1,4.61.49,23.95,23.95,0,0,1,37.6,4.93A18.06,18.06,0,0,1,88,43.07,18.26,18.26,0,0,1,106.29,61.34Z" transform="translate(-1 -1)" style="fill:#fafafa"/><path d="M45.32,94.19a3.18,3.18,0,1,1-6.36,0,3.22,3.22,0,0,1,0-.49c0-.1,0-.21.06-.31v0l.11-.32,3-9.14,3,9.14.11.32v0c0,.1,0,.2.06.31A3.22,3.22,0,0,1,45.32,94.19Z" transform="translate(-1 -1)" style="fill:#03a9f4"/><path d="M59.76,106.82a3.18,3.18,0,1,1-6.36,0,3.22,3.22,0,0,1,0-.49c0-.1,0-.21.06-.31v0l.11-.32,3-9.14,3,9.14.11.32v0c0,.1,0,.2.06.31A3.22,3.22,0,0,1,59.76,106.82Z" transform="translate(-1 -1)" style="fill:#03a9f4"/><path d="M70.58,93.29a3.18,3.18,0,0,1-6.36,0,3.22,3.22,0,0,1,0-.49c0-.1,0-.21.06-.31v0l.11-.32,3-9.14,3,9.14.11.32v0c0,.1,0,.2.06.31A3.22,3.22,0,0,1,70.58,93.29Z" transform="translate(-1 -1)" style="fill:#03a9f4"/><path d="M80.5,106.82a3.18,3.18,0,1,1-6.36,0,3.22,3.22,0,0,1,0-.49c0-.1,0-.21.06-.31v0l.11-.32,3-9.14,3,9.14.11.32v0c0,.1,0,.2.06.31A3.22,3.22,0,0,1,80.5,106.82Z" transform="translate(-1 -1)" style="fill:#03a9f4"/><path d="M94.5,93.82a3.18,3.18,0,1,1-6.36,0,3.22,3.22,0,0,1,0-.49c0-.1,0-.21.06-.31v0l.11-.32,3-9.14,3,9.14.11.32v0c0,.1,0,.2.06.31A3.22,3.22,0,0,1,94.5,93.82Z" transform="translate(-1 -1)" style="fill:#03a9f4"/><path d="M39,99.18l.16-.48c0,.16-.07.32-.1.48Z" transform="translate(-1 -1)" style="fill:#fafafa"/><path d="M48.88,99.18h-.06c0-.16-.06-.32-.1-.48Z" transform="translate(-1 -1)" style="fill:#fafafa"/></svg>